# xmcd
#
# Track frame offsets:
#        150
#        13322
#        28215
#        44052
#        62635
#        78440
#        93922
#        110142
#        129345
#        147152
#        158567
#        173192
#        186252
#        204505
#        219825
#
# Disc length: 3185 seconds
#
# Revision: 0
# Processed by: cddbd v1.5.1PL0 Copyright (c) Steve Scherf et al.
# Submitted via: ExactAudioCopy v0.95a5
#
DISCID=d30c6f0f
DTITLE=LOS ROLIN - POR RUMBAS
DYEAR=1991
DGENRE=Latin
TTITLE0=HELP
TTITLE1=SHE LOVES YOU
TTITLE2=YELLOW SUBMARINE
TTITLE3=YESTERDAY
TTITLE4=NOWHERE MAN
TTITLE5=AND I LOVE HER
TTITLE6=I SHOULD HAVE KNOWN BETTER
TTITLE7=MEDLEY
TTITLE8=OB-LA-DI,OB-LA-DA
TTITLE9=ALL MY LOVING
TTITLE10=AND I LOVE HER
TTITLE11=HELP
TTITLE12=SOMTHING
TTITLE13=YELLOW SUBMARINE
TTITLE14=SPANISH RUMBA BEAT
EXTD=
EXTT0=
EXTT1=
EXTT2=
EXTT3=
EXTT4=
EXTT5=
EXTT6=
EXTT7=
EXTT8=
EXTT9=
EXTT10=
EXTT11=
EXTT12=
EXTT13=
EXTT14=
PLAYORDER=
